<?xml version="1.0" encoding="UTF-8" standalone="no"?>
<!-- Created with Inkscape (http://www.inkscape.org/) -->

<svg
   xmlns:osb="http://www.openswatchbook.org/uri/2009/osb"
   xmlns:dc="http://purl.org/dc/elements/1.1/"
   xmlns:cc="http://creativecommons.org/ns#"
   xmlns:rdf="http://www.w3.org/1999/02/22-rdf-syntax-ns#"
   xmlns:svg="http://www.w3.org/2000/svg"
   xmlns="http://www.w3.org/2000/svg"
   xmlns:xlink="http://www.w3.org/1999/xlink"
   xmlns:sodipodi="http://sodipodi.sourceforge.net/DTD/sodipodi-0.dtd"
   xmlns:inkscape="http://www.inkscape.org/namespaces/inkscape"
   width="531.49603"
   height="333.07086"
   id="svg2"
   version="1.1"
   inkscape:version="0.91 r13725"
   inkscape:export-filename="C:\Users\Mark\Desktop\bitmap.png"
   inkscape:export-xdpi="300"
   inkscape:export-ydpi="300"
   enable-background="new"
   sodipodi:docname="001_borders.svg">
  <defs
     id="defs4">
    <pattern
       inkscape:collect="always"
       xlink:href="#Strips1_3"
       id="pattern5592"
       patternTransform="matrix(6.924971,-0.78695433,1.3572525,11.94343,17.142857,14.285714)" />
    <pattern
       inkscape:stockid="Stripes 1:3"
       id="Strips1_3"
       patternTransform="translate(0,0) scale(10,10)"
       height="1"
       width="4"
       patternUnits="userSpaceOnUse"
       inkscape:collect="always">
      <rect
         id="rect4893"
         height="2"
         width="1"
         y="-0.5"
         x="0"
         style="fill:black;stroke:none" />
    </pattern>
    <linearGradient
       id="linearGradient5340">
      <stop
         style="stop-color:#ffffff;stop-opacity:1;"
         offset="0"
         id="stop5342" />
      <stop
         style="stop-color:#ffffff;stop-opacity:0;"
         offset="1"
         id="stop5344" />
    </linearGradient>
    <linearGradient
       id="linearGradient5263"
       osb:paint="solid">
      <stop
         style="stop-color:#bfa3a9;stop-opacity:1;"
         offset="0"
         id="stop5265" />
    </linearGradient>
  </defs>
  <sodipodi:namedview
     id="base"
     pagecolor="#ffffff"
     bordercolor="#666666"
     borderopacity="1.0"
     inkscape:pageopacity="0.0"
     inkscape:pageshadow="2"
     inkscape:zoom="0.98994949"
     inkscape:cx="200.88071"
     inkscape:cy="187.19924"
     inkscape:document-units="px"
     inkscape:current-layer="layer3"
     showgrid="false"
     units="cm"
     showguides="true"
     inkscape:guide-bbox="true"
     inkscape:window-width="1149"
     inkscape:window-height="666"
     inkscape:window-x="126"
     inkscape:window-y="126"
     inkscape:window-maximized="0" />
  <metadata
     id="metadata7">
    <rdf:RDF>
      <cc:Work
         rdf:about="">
        <dc:format>image/svg+xml</dc:format>
        <dc:type
           rdf:resource="http://purl.org/dc/dcmitype/StillImage" />
        <dc:title />
      </cc:Work>
    </rdf:RDF>
  </metadata>
  <g
     inkscape:groupmode="layer"
     id="layer3"
     inkscape:label="Temp_Karte"
     style="display:inline"
     sodipodi:insensitive="true" />
  <g
     inkscape:groupmode="layer"
     id="layer1"
     inkscape:label="Begrenzung"
     style="display:inline"
     sodipodi:insensitive="true">
    <path
       style="opacity:0.4;fill:url(#pattern5592);fill-opacity:1;fill-rule:nonzero;stroke:#ff0000;stroke-width:1.5;stroke-linecap:butt;stroke-linejoin:round;stroke-miterlimit:4;stroke-dasharray:none;stroke-dashoffset:8.75;stroke-opacity:1"
       d="m 0,0.0703125 0,332.9999975 531.90039,0 0,-332.9999975 -531.90039,0 z M 120.63086,52.914062 c 3.00783,-0.05426 8.03682,1.323741 9.42578,10.699219 2.02031,13.63706 5.30351,41.163509 5.80859,48.992189 0.50507,7.82868 -1.51558,9.09122 8.58594,11.86914 10.10153,2.77792 40.40625,14.64648 40.40625,14.64648 l 16.57031,-41.408199 c 0,0 5.00029,-17.499163 12.85743,-23.927735 7.85715,-6.428571 13.92858,-7.499163 22.5,-3.927734 8.57143,3.571429 27.14257,31.427738 27.14257,31.427738 0,0 23.92857,36.78571 25,47.5 1.07143,10.71428 1.78628,20.71344 -1.78515,31.42773 -3.57143,10.71428 -3.03516,14.28571 -13.03516,10 -10,-4.28572 -26.11523,-11.69531 -26.11523,-11.69531 L 215.16211,164.375 203.54492,190.13477 c 0,0 -2.77701,8.07986 -18.93945,2.27148 -16.16244,-5.80838 -48.74024,-18.43359 -48.74024,-18.43359 l -4.79882,19.1914 c 0,0 -0.50377,8.08203 -17.42383,10.60742 -16.920056,2.52538 -24.748878,9.59663 -37.880861,-6.81836 -13.131983,-16.41497 -59.09375,-71.7207 -59.09375,-71.7207 0,0 -6.062085,-8.08244 0.503906,-14.64844 6.565992,-6.56599 12.880283,-11.616806 15.658203,-15.152339 2.777919,-3.535534 5.556047,-3.281467 3.283203,-9.089844 -2.272843,-5.808378 4.041044,-10.85997 11.617188,-13.132813 7.576144,-2.272844 70.583981,-19.951172 70.583981,-19.951172 0,0 0.94921,-0.319088 2.31641,-0.34375 z"
       id="path4151"
       inkscape:connector-curvature="0" />
  </g>
  <g
     inkscape:groupmode="layer"
     id="layer2"
     inkscape:label="Infos"
     sodipodi:insensitive="true" />
</svg>
